<svg width="370" height="1080" viewBox="0 0 370 1080" fill="none" xmlns="http://www.w3.org/2000/svg">
<g clip-path="url(#clip0_897_857)">
<g clip-path="url(#clip1_897_857)">
<rect width="724" height="724" transform="translate(-620 -40)" fill="#7FFF5B"/>
<path d="M-250.285 703.306C-193.303 703.414 -137.026 690.732 -85.6134 666.198C-34.2011 641.663 11.0312 605.904 46.7393 561.564C57.2497 548.579 65.0959 533.654 69.83 517.642C74.564 501.629 76.0932 484.842 74.3302 468.239C72.5672 451.637 67.5464 435.543 59.5547 420.878C51.563 406.213 40.7569 393.263 27.7532 382.768C14.7495 372.273 -0.197109 364.438 -16.2331 359.711C-32.2692 354.984 -49.0806 353.457 -65.7077 355.217C-82.3347 356.978 -98.4515 361.991 -113.138 369.971C-127.825 377.951 -140.794 388.742 -151.304 401.726C-167.779 422.132 -190.173 436.948 -215.414 444.144C-240.655 451.339 -267.507 450.561 -292.288 441.917C-317.069 433.272 -338.565 417.184 -353.827 395.859C-369.09 374.534 -377.372 349.016 -377.538 322.806C-377.703 296.595 -369.745 270.975 -354.753 249.459C-339.761 227.944 -318.47 211.586 -293.801 202.63C-269.131 193.673 -242.291 192.557 -216.961 199.434C-191.631 206.31 -169.052 220.843 -152.32 241.039C-141.732 254.151 -128.641 265.032 -113.807 273.05C-98.9732 281.068 -82.6917 286.063 -65.9082 287.746C-49.1248 289.428 -32.1738 287.764 -16.0397 282.851C0.0944957 277.937 15.0904 269.872 28.077 259.124C41.0637 248.375 51.7823 235.157 59.6106 220.238C67.4389 205.318 72.2209 188.995 73.6787 172.214C75.1366 155.434 73.2413 138.532 68.1029 122.489C62.9645 106.447 54.6855 91.5833 43.7466 78.7622C7.96694 35.52 -36.9496 0.716552 -87.7836 -23.1536C-138.618 -47.0238 -194.11 -59.3697 -250.285 -59.3064C-460.848 -59.3064 -632.067 111.744 -632.067 322C-632.067 532.256 -460.848 703.306 -250.285 703.306Z" fill="#FF90FF"/>
</g>
<g clip-path="url(#clip2_897_857)">
<rect width="724" height="724" transform="translate(104 684)" fill="#FFFF50"/>
<path fill-rule="evenodd" clip-rule="evenodd" d="M670.521 633.32H262.786V785.039L186.926 785.039L186.926 908.303H101.587L101.587 1192.77H186.926L186.926 1316.04H262.786V1458.27H670.521V1316.04H746.377V1192.77H831.717V908.303H746.377V785.039L670.521 785.039V633.32ZM594.66 955.719H727.411V1154.85H594.66V1240.19H338.641V1154.85H205.889L205.889 955.719H338.641V870.381H594.66V955.719Z" fill="#FF90FF"/>
</g>
<g clip-path="url(#clip3_897_857)">
<rect width="724" height="724" transform="translate(-620 684)" fill="#7FFF5B"/>
<rect x="-11.84" y="684" width="115.926" height="115.926" fill="#FFFF50"/>
</g>
<g clip-path="url(#clip4_897_857)">
<rect width="724" height="724" transform="translate(104 -40)" fill="#4D7BFF"/>
<path d="M644.38 -40H419.69V109.79H236.61V683.998H461.3L461.301 255.428C461.301 216.362 492.971 184.693 532.037 184.693C571.103 184.693 602.773 216.362 602.773 255.428L602.773 685.357H829.876V250.208H777.529V101.473H727.597V26.5708H644.38V-40Z" fill="#FF5C5C"/>
</g>
</g>
<defs>
<clipPath id="clip0_897_857">
<rect width="370" height="1080" fill="white"/>
</clipPath>
<clipPath id="clip1_897_857">
<rect width="724" height="724" fill="white" transform="translate(-620 -40)"/>
</clipPath>
<clipPath id="clip2_897_857">
<rect width="724" height="724" fill="white" transform="translate(104 684)"/>
</clipPath>
<clipPath id="clip3_897_857">
<rect width="724" height="724" fill="white" transform="translate(-620 684)"/>
</clipPath>
<clipPath id="clip4_897_857">
<rect width="724" height="724" fill="white" transform="translate(104 -40)"/>
</clipPath>
</defs>
</svg>
